<mxfile host="drawio-plugin" modified="2021-04-28T22:42:41.432Z" agent="5.0 (Macintosh; Intel Mac OS X 10_16_0) AppleWebKit/537.36 (KHTML, like Gecko) Chrome/84.0.4147.105 Safari/537.36" etag="yDZ9etrdlowrwmcb0ZwL" version="13.7.9" type="embed" pages="2"><diagram id="0F3laJWfNrCaS-OK3l-x" name="DomainModel"><mxGraphModel dx="1384" dy="737" grid="0" gridSize="10" guides="1" tooltips="1" connect="1" arrows="1" fold="1" page="0" pageScale="1" pageWidth="850" pageHeight="1100" math="0" shadow="0"><root><mxCell id="0"/><mxCell id="1" parent="0"/><mxCell id="9" value="Booking/Reservation" style="shape=table;startSize=30;container=1;collapsible=1;childLayout=tableLayout;fixedRows=1;rowLines=0;fontStyle=1;align=center;resizeLast=1;" parent="1" vertex="1"><mxGeometry x="600" y="80" width="250" height="200" as="geometry"/></mxCell><mxCell id="10" value="" style="shape=partialRectangle;collapsible=0;dropTarget=0;pointerEvents=0;fillColor=none;points=[[0,0.5],[1,0.5]];portConstraint=eastwest;top=0;left=0;right=0;bottom=1;" parent="9" vertex="1"><mxGeometry y="30" width="250" height="30" as="geometry"/></mxCell><mxCell id="11" value="PK" style="shape=partialRectangle;overflow=hidden;connectable=0;fillColor=none;top=0;left=0;bottom=0;right=0;fontStyle=1;" parent="10" vertex="1"><mxGeometry width="30" height="30" as="geometry"/></mxCell><mxCell id="12" value="OrderID int NOT NULL" style="shape=partialRectangle;overflow=hidden;connectable=0;fillColor=none;top=0;left=0;bottom=0;right=0;align=left;spacingLeft=6;fontStyle=5;" parent="10" vertex="1"><mxGeometry x="30" width="220" height="30" as="geometry"/></mxCell><mxCell id="13" value="" style="shape=partialRectangle;collapsible=0;dropTarget=0;pointerEvents=0;fillColor=none;points=[[0,0.5],[1,0.5]];portConstraint=eastwest;top=0;left=0;right=0;bottom=0;" parent="9" vertex="1"><mxGeometry y="60" width="250" height="140" as="geometry"/></mxCell><mxCell id="14" value="&#10;FK1&#10;FK2&#10;FK3&#10;&#10;&#10;&#10;&#10;" style="shape=partialRectangle;overflow=hidden;connectable=0;fillColor=none;top=0;left=0;bottom=0;right=0;" parent="13" vertex="1"><mxGeometry width="30" height="140" as="geometry"/></mxCell><mxCell id="15" value="ClientID int &#10;PaymentID int&#10;CampersID int&#10;RentalsAmount decimal&#10;RentalsPeriodStart date&#10;RentalsPeriodEnd date&#10;" style="shape=partialRectangle;overflow=hidden;connectable=0;fillColor=none;top=0;left=0;bottom=0;right=0;align=left;spacingLeft=6;" parent="13" vertex="1"><mxGeometry x="30" width="220" height="140" as="geometry"/></mxCell><mxCell id="16" value="Client" style="shape=table;startSize=30;container=1;collapsible=1;childLayout=tableLayout;fixedRows=1;rowLines=0;fontStyle=1;align=center;resizeLast=1;" parent="1" vertex="1"><mxGeometry x="80" y="80" width="290" height="210" as="geometry"/></mxCell><mxCell id="17" value="" style="shape=partialRectangle;collapsible=0;dropTarget=0;pointerEvents=0;fillColor=none;points=[[0,0.5],[1,0.5]];portConstraint=eastwest;top=0;left=0;right=0;bottom=1;" parent="16" vertex="1"><mxGeometry y="30" width="290" height="30" as="geometry"/></mxCell><mxCell id="18" value="PK" style="shape=partialRectangle;overflow=hidden;connectable=0;fillColor=none;top=0;left=0;bottom=0;right=0;fontStyle=1;" parent="17" vertex="1"><mxGeometry width="30" height="30" as="geometry"/></mxCell><mxCell id="19" value="ClientID int NOT NULL " style="shape=partialRectangle;overflow=hidden;connectable=0;fillColor=none;top=0;left=0;bottom=0;right=0;align=left;spacingLeft=6;fontStyle=5;" parent="17" vertex="1"><mxGeometry x="30" width="260" height="30" as="geometry"/></mxCell><mxCell id="20" value="" style="shape=partialRectangle;collapsible=0;dropTarget=0;pointerEvents=0;fillColor=none;points=[[0,0.5],[1,0.5]];portConstraint=eastwest;top=0;left=0;right=0;bottom=0;" parent="16" vertex="1"><mxGeometry y="60" width="290" height="120" as="geometry"/></mxCell><mxCell id="21" value="" style="shape=partialRectangle;overflow=hidden;connectable=0;fillColor=none;top=0;left=0;bottom=0;right=0;" parent="20" vertex="1"><mxGeometry width="30" height="120" as="geometry"/></mxCell><mxCell id="22" value="ClientName varchar(50) NOT NULL&#10;Address varchar(80) NOT Null&#10;EmailAddress varchar(30) not null&#10;DriveLicenseNo int&#10;Co-DriverName&#10;Co-DriverLicenseNo&#10;DriverFullDrivingLicenseStatue varchar(10)&#10;CO-DriverFullDrivingLicenseStatue varchar(10)" style="shape=partialRectangle;overflow=hidden;connectable=0;fillColor=none;top=0;left=0;bottom=0;right=0;align=left;spacingLeft=6;" parent="20" vertex="1"><mxGeometry x="30" width="260" height="120" as="geometry"/></mxCell><mxCell id="37" value="Discount" style="shape=table;startSize=30;container=1;collapsible=1;childLayout=tableLayout;fixedRows=1;rowLines=0;fontStyle=1;align=center;resizeLast=1;" parent="1" vertex="1"><mxGeometry x="600" y="620" width="250" height="190" as="geometry"/></mxCell><mxCell id="38" value="" style="shape=partialRectangle;collapsible=0;dropTarget=0;pointerEvents=0;fillColor=none;points=[[0,0.5],[1,0.5]];portConstraint=eastwest;top=0;left=0;right=0;bottom=1;" parent="37" vertex="1"><mxGeometry y="30" width="250" height="30" as="geometry"/></mxCell><mxCell id="39" value="PK" style="shape=partialRectangle;overflow=hidden;connectable=0;fillColor=none;top=0;left=0;bottom=0;right=0;fontStyle=1;" parent="38" vertex="1"><mxGeometry width="30" height="30" as="geometry"/></mxCell><mxCell id="40" value="DiscountID" style="shape=partialRectangle;overflow=hidden;connectable=0;fillColor=none;top=0;left=0;bottom=0;right=0;align=left;spacingLeft=6;fontStyle=5;" parent="38" vertex="1"><mxGeometry x="30" width="220" height="30" as="geometry"/></mxCell><mxCell id="41" value="" style="shape=partialRectangle;collapsible=0;dropTarget=0;pointerEvents=0;fillColor=none;points=[[0,0.5],[1,0.5]];portConstraint=eastwest;top=0;left=0;right=0;bottom=0;" parent="37" vertex="1"><mxGeometry y="60" width="250" height="90" as="geometry"/></mxCell><mxCell id="42" value="&#10;FK" style="shape=partialRectangle;overflow=hidden;connectable=0;fillColor=none;top=0;left=0;bottom=0;right=0;" parent="41" vertex="1"><mxGeometry width="30" height="90" as="geometry"/></mxCell><mxCell id="43" value="DiscountType varchar(30)&#10;DiscountAmount decimal" style="shape=partialRectangle;overflow=hidden;connectable=0;fillColor=none;top=0;left=0;bottom=0;right=0;align=left;spacingLeft=6;" parent="41" vertex="1"><mxGeometry x="30" width="220" height="90" as="geometry"/></mxCell><mxCell id="44" value="" style="shape=partialRectangle;collapsible=0;dropTarget=0;pointerEvents=0;fillColor=none;points=[[0,0.5],[1,0.5]];portConstraint=eastwest;top=0;left=0;right=0;bottom=0;" parent="37" vertex="1"><mxGeometry y="150" width="250" height="30" as="geometry"/></mxCell><mxCell id="45" value="" style="shape=partialRectangle;overflow=hidden;connectable=0;fillColor=none;top=0;left=0;bottom=0;right=0;" parent="44" vertex="1"><mxGeometry width="30" height="30" as="geometry"/></mxCell><mxCell id="46" value="" style="shape=partialRectangle;overflow=hidden;connectable=0;fillColor=none;top=0;left=0;bottom=0;right=0;align=left;spacingLeft=6;" parent="44" vertex="1"><mxGeometry x="30" width="220" height="30" as="geometry"/></mxCell><mxCell id="54" value="Deposit" style="shape=table;startSize=30;container=1;collapsible=1;childLayout=tableLayout;fixedRows=1;rowLines=0;fontStyle=1;align=center;resizeLast=1;" parent="1" vertex="1"><mxGeometry x="1000" y="550" width="250" height="190" as="geometry"/></mxCell><mxCell id="55" value="" style="shape=partialRectangle;collapsible=0;dropTarget=0;pointerEvents=0;fillColor=none;points=[[0,0.5],[1,0.5]];portConstraint=eastwest;top=0;left=0;right=0;bottom=1;" parent="54" vertex="1"><mxGeometry y="30" width="250" height="30" as="geometry"/></mxCell><mxCell id="56" value="PK" style="shape=partialRectangle;overflow=hidden;connectable=0;fillColor=none;top=0;left=0;bottom=0;right=0;fontStyle=1;" parent="55" vertex="1"><mxGeometry width="30" height="30" as="geometry"/></mxCell><mxCell id="57" value="DepositID int NOT NULL" style="shape=partialRectangle;overflow=hidden;connectable=0;fillColor=none;top=0;left=0;bottom=0;right=0;align=left;spacingLeft=6;fontStyle=5;" parent="55" vertex="1"><mxGeometry x="30" width="220" height="30" as="geometry"/></mxCell><mxCell id="58" value="" style="shape=partialRectangle;collapsible=0;dropTarget=0;pointerEvents=0;fillColor=none;points=[[0,0.5],[1,0.5]];portConstraint=eastwest;top=0;left=0;right=0;bottom=0;" parent="54" vertex="1"><mxGeometry y="60" width="250" height="90" as="geometry"/></mxCell><mxCell id="59" value="&#10;FK" style="shape=partialRectangle;overflow=hidden;connectable=0;fillColor=none;top=0;left=0;bottom=0;right=0;" parent="58" vertex="1"><mxGeometry width="30" height="90" as="geometry"/></mxCell><mxCell id="60" value="DepositPaid varchar(10)&#10;DepositAmount decimal&#10;BookingDate date&#10;DueDate date" style="shape=partialRectangle;overflow=hidden;connectable=0;fillColor=none;top=0;left=0;bottom=0;right=0;align=left;spacingLeft=6;" parent="58" vertex="1"><mxGeometry x="30" width="220" height="90" as="geometry"/></mxCell><mxCell id="61" value="" style="shape=partialRectangle;collapsible=0;dropTarget=0;pointerEvents=0;fillColor=none;points=[[0,0.5],[1,0.5]];portConstraint=eastwest;top=0;left=0;right=0;bottom=0;" parent="54" vertex="1"><mxGeometry y="150" width="250" height="30" as="geometry"/></mxCell><mxCell id="62" value="" style="shape=partialRectangle;overflow=hidden;connectable=0;fillColor=none;top=0;left=0;bottom=0;right=0;" parent="61" vertex="1"><mxGeometry width="30" height="30" as="geometry"/></mxCell><mxCell id="63" value="" style="shape=partialRectangle;overflow=hidden;connectable=0;fillColor=none;top=0;left=0;bottom=0;right=0;align=left;spacingLeft=6;" parent="61" vertex="1"><mxGeometry x="30" width="220" height="30" as="geometry"/></mxCell><mxCell id="2" value="Payment" style="shape=table;startSize=30;container=1;collapsible=1;childLayout=tableLayout;fixedRows=1;rowLines=0;fontStyle=1;align=center;resizeLast=1;" parent="1" vertex="1"><mxGeometry x="600" y="345" width="250" height="205" as="geometry"/></mxCell><mxCell id="3" value="" style="shape=partialRectangle;collapsible=0;dropTarget=0;pointerEvents=0;fillColor=none;points=[[0,0.5],[1,0.5]];portConstraint=eastwest;top=0;left=0;right=0;bottom=1;" parent="2" vertex="1"><mxGeometry y="30" width="250" height="30" as="geometry"/></mxCell><mxCell id="4" value="PK" style="shape=partialRectangle;overflow=hidden;connectable=0;fillColor=none;top=0;left=0;bottom=0;right=0;fontStyle=1;" parent="3" vertex="1"><mxGeometry width="30" height="30" as="geometry"/></mxCell><mxCell id="5" value="PaymentID int NOT NULL " style="shape=partialRectangle;overflow=hidden;connectable=0;fillColor=none;top=0;left=0;bottom=0;right=0;align=left;spacingLeft=6;fontStyle=5;" parent="3" vertex="1"><mxGeometry x="30" width="220" height="30" as="geometry"/></mxCell><mxCell id="6" value="" style="shape=partialRectangle;collapsible=0;dropTarget=0;pointerEvents=0;fillColor=none;points=[[0,0.5],[1,0.5]];portConstraint=eastwest;top=0;left=0;right=0;bottom=0;" parent="2" vertex="1"><mxGeometry y="60" width="250" height="125" as="geometry"/></mxCell><mxCell id="7" value="FK1&#10;FK2&#10;FK3&#10;FK4&#10;FK5&#10;FK6&#10;&#10;" style="shape=partialRectangle;overflow=hidden;connectable=0;fillColor=none;top=0;left=0;bottom=0;right=0;" parent="6" vertex="1"><mxGeometry width="30" height="125" as="geometry"/></mxCell><mxCell id="8" value="OrderID int&#10;BankID int &#10;DiscountID int&#10;DepositID int&#10;RemainingID int&#10;InsuranceID int&#10;PaymentOvertime date&#10;PaymentCancelDate date" style="shape=partialRectangle;overflow=hidden;connectable=0;fillColor=none;top=0;left=0;bottom=0;right=0;align=left;spacingLeft=6;" parent="6" vertex="1"><mxGeometry x="30" width="220" height="125" as="geometry"/></mxCell><mxCell id="47" value="CamperType" style="shape=table;startSize=50;container=1;collapsible=1;childLayout=tableLayout;fixedRows=1;rowLines=0;fontStyle=1;align=center;resizeLast=1;" parent="1" vertex="1"><mxGeometry x="1000" y="325" width="260" height="170" as="geometry"/></mxCell><mxCell id="48" value="" style="shape=partialRectangle;collapsible=0;dropTarget=0;pointerEvents=0;fillColor=none;points=[[0,0.5],[1,0.5]];portConstraint=eastwest;top=0;left=0;right=0;bottom=1;" parent="47" vertex="1"><mxGeometry y="50" width="260" height="30" as="geometry"/></mxCell><mxCell id="49" value="PK" style="shape=partialRectangle;overflow=hidden;connectable=0;fillColor=none;top=0;left=0;bottom=0;right=0;fontStyle=1;" parent="48" vertex="1"><mxGeometry width="30" height="30" as="geometry"/></mxCell><mxCell id="50" value="CamperType_varchar(30) NOT NULL " style="shape=partialRectangle;overflow=hidden;connectable=0;fillColor=none;top=0;left=0;bottom=0;right=0;align=left;spacingLeft=6;fontStyle=5;" parent="48" vertex="1"><mxGeometry x="30" width="230" height="30" as="geometry"/></mxCell><mxCell id="51" value="" style="shape=partialRectangle;collapsible=0;dropTarget=0;pointerEvents=0;fillColor=none;points=[[0,0.5],[1,0.5]];portConstraint=eastwest;top=0;left=0;right=0;bottom=0;" parent="47" vertex="1"><mxGeometry y="80" width="260" height="90" as="geometry"/></mxCell><mxCell id="52" value="" style="shape=partialRectangle;overflow=hidden;connectable=0;fillColor=none;top=0;left=0;bottom=0;right=0;" parent="51" vertex="1"><mxGeometry width="30" height="90" as="geometry"/></mxCell><mxCell id="53" value="KitchenFacilities varchar(100)&#10;No.of bed int&#10;HeatingFacility int&#10;SpaceAvailable int&#10;" style="shape=partialRectangle;overflow=hidden;connectable=0;fillColor=none;top=0;left=0;bottom=0;right=0;align=left;spacingLeft=6;" parent="51" vertex="1"><mxGeometry x="30" width="230" height="90" as="geometry"/></mxCell><mxCell id="23" value="PriceCategory" style="shape=table;startSize=50;container=1;collapsible=1;childLayout=tableLayout;fixedRows=1;rowLines=0;fontStyle=1;align=center;resizeLast=1;" parent="1" vertex="1"><mxGeometry x="1360" y="390" width="250" height="145" as="geometry"/></mxCell><mxCell id="24" value="" style="shape=partialRectangle;collapsible=0;dropTarget=0;pointerEvents=0;fillColor=none;points=[[0,0.5],[1,0.5]];portConstraint=eastwest;top=0;left=0;right=0;bottom=1;" parent="23" vertex="1"><mxGeometry y="50" width="250" height="30" as="geometry"/></mxCell><mxCell id="25" value="PK" style="shape=partialRectangle;overflow=hidden;connectable=0;fillColor=none;top=0;left=0;bottom=0;right=0;fontStyle=1;" parent="24" vertex="1"><mxGeometry width="30" height="30" as="geometry"/></mxCell><mxCell id="26" value="CategoryID int NOT NULL" style="shape=partialRectangle;overflow=hidden;connectable=0;fillColor=none;top=0;left=0;bottom=0;right=0;align=left;spacingLeft=6;fontStyle=5;" parent="24" vertex="1"><mxGeometry x="30" width="220" height="30" as="geometry"/></mxCell><mxCell id="27" value="" style="shape=partialRectangle;collapsible=0;dropTarget=0;pointerEvents=0;fillColor=none;points=[[0,0.5],[1,0.5]];portConstraint=eastwest;top=0;left=0;right=0;bottom=0;" parent="23" vertex="1"><mxGeometry y="80" width="250" height="55" as="geometry"/></mxCell><mxCell id="28" value="" style="shape=partialRectangle;overflow=hidden;connectable=0;fillColor=none;top=0;left=0;bottom=0;right=0;" parent="27" vertex="1"><mxGeometry width="30" height="55" as="geometry"/></mxCell><mxCell id="29" value="CategoryType varchar(30)&#10;CategoryPrice decimal&#10;CategorySeasonalPrice decimal" style="shape=partialRectangle;overflow=hidden;connectable=0;fillColor=none;top=0;left=0;bottom=0;right=0;align=left;spacingLeft=6;" parent="27" vertex="1"><mxGeometry x="30" width="220" height="55" as="geometry"/></mxCell><mxCell id="30" value="Camper" style="shape=table;startSize=50;container=1;collapsible=1;childLayout=tableLayout;fixedRows=1;rowLines=0;fontStyle=1;align=center;resizeLast=1;" parent="1" vertex="1"><mxGeometry x="1370" y="80" width="250" height="220" as="geometry"/></mxCell><mxCell id="31" value="" style="shape=partialRectangle;collapsible=0;dropTarget=0;pointerEvents=0;fillColor=none;points=[[0,0.5],[1,0.5]];portConstraint=eastwest;top=0;left=0;right=0;bottom=1;" parent="30" vertex="1"><mxGeometry y="50" width="250" height="30" as="geometry"/></mxCell><mxCell id="32" value="PK" style="shape=partialRectangle;overflow=hidden;connectable=0;fillColor=none;top=0;left=0;bottom=0;right=0;fontStyle=1;" parent="31" vertex="1"><mxGeometry width="30" height="30" as="geometry"/></mxCell><mxCell id="33" value="CamperID int NOT NULL " style="shape=partialRectangle;overflow=hidden;connectable=0;fillColor=none;top=0;left=0;bottom=0;right=0;align=left;spacingLeft=6;fontStyle=5;" parent="31" vertex="1"><mxGeometry x="30" width="220" height="30" as="geometry"/></mxCell><mxCell id="34" value="" style="shape=partialRectangle;collapsible=0;dropTarget=0;pointerEvents=0;fillColor=none;points=[[0,0.5],[1,0.5]];portConstraint=eastwest;top=0;left=0;right=0;bottom=0;" parent="30" vertex="1"><mxGeometry y="80" width="250" height="70" as="geometry"/></mxCell><mxCell id="35" value="FK1&#10;FK2&#10;&#10;" style="shape=partialRectangle;overflow=hidden;connectable=0;fillColor=none;top=0;left=0;bottom=0;right=0;" parent="34" vertex="1"><mxGeometry width="30" height="70" as="geometry"/></mxCell><mxCell id="36" value="CamperType varchar(30)&#10;CategoryID int&#10;Camper_regest.Year (int)&#10;FullTankStatu varchar(10)" style="shape=partialRectangle;overflow=hidden;connectable=0;fillColor=none;top=0;left=0;bottom=0;right=0;align=left;spacingLeft=6;" parent="34" vertex="1"><mxGeometry x="30" width="220" height="70" as="geometry"/></mxCell><mxCell id="74" value="Bank" style="shape=table;startSize=50;container=1;collapsible=1;childLayout=tableLayout;fixedRows=1;rowLines=0;fontStyle=1;align=center;resizeLast=1;" parent="1" vertex="1"><mxGeometry x="130" y="340" width="250" height="210" as="geometry"/></mxCell><mxCell id="75" value="" style="shape=partialRectangle;collapsible=0;dropTarget=0;pointerEvents=0;fillColor=none;points=[[0,0.5],[1,0.5]];portConstraint=eastwest;top=0;left=0;right=0;bottom=1;" parent="74" vertex="1"><mxGeometry y="50" width="250" height="30" as="geometry"/></mxCell><mxCell id="76" value="PK" style="shape=partialRectangle;overflow=hidden;connectable=0;fillColor=none;top=0;left=0;bottom=0;right=0;fontStyle=1;" parent="75" vertex="1"><mxGeometry width="30" height="30" as="geometry"/></mxCell><mxCell id="77" value="Bank_id int NOT NULL " style="shape=partialRectangle;overflow=hidden;connectable=0;fillColor=none;top=0;left=0;bottom=0;right=0;align=left;spacingLeft=6;fontStyle=5;" parent="75" vertex="1"><mxGeometry x="30" width="220" height="30" as="geometry"/></mxCell><mxCell id="78" value="" style="shape=partialRectangle;collapsible=0;dropTarget=0;pointerEvents=0;fillColor=none;points=[[0,0.5],[1,0.5]];portConstraint=eastwest;top=0;left=0;right=0;bottom=0;" parent="74" vertex="1"><mxGeometry y="80" width="250" height="80" as="geometry"/></mxCell><mxCell id="79" value="" style="shape=partialRectangle;overflow=hidden;connectable=0;fillColor=none;top=0;left=0;bottom=0;right=0;" parent="78" vertex="1"><mxGeometry width="30" height="80" as="geometry"/></mxCell><mxCell id="80" value="bankName&#10;clientId(int)&#10;paymentId&#10;insurance&#10;" style="shape=partialRectangle;overflow=hidden;connectable=0;fillColor=none;top=0;left=0;bottom=0;right=0;align=left;spacingLeft=6;" parent="78" vertex="1"><mxGeometry x="30" width="220" height="80" as="geometry"/></mxCell><mxCell id="81" value="Insurance" style="shape=table;startSize=50;container=1;collapsible=1;childLayout=tableLayout;fixedRows=1;rowLines=0;fontStyle=1;align=center;resizeLast=1;" parent="1" vertex="1"><mxGeometry x="600" y="870" width="250" height="170" as="geometry"/></mxCell><mxCell id="82" value="" style="shape=partialRectangle;collapsible=0;dropTarget=0;pointerEvents=0;fillColor=none;points=[[0,0.5],[1,0.5]];portConstraint=eastwest;top=0;left=0;right=0;bottom=1;" parent="81" vertex="1"><mxGeometry y="50" width="250" height="30" as="geometry"/></mxCell><mxCell id="83" value="PK" style="shape=partialRectangle;overflow=hidden;connectable=0;fillColor=none;top=0;left=0;bottom=0;right=0;fontStyle=1;" parent="82" vertex="1"><mxGeometry width="30" height="30" as="geometry"/></mxCell><mxCell id="84" value="insurance_id int NOT NULL " style="shape=partialRectangle;overflow=hidden;connectable=0;fillColor=none;top=0;left=0;bottom=0;right=0;align=left;spacingLeft=6;fontStyle=5;" parent="82" vertex="1"><mxGeometry x="30" width="220" height="30" as="geometry"/></mxCell><mxCell id="85" value="" style="shape=partialRectangle;collapsible=0;dropTarget=0;pointerEvents=0;fillColor=none;points=[[0,0.5],[1,0.5]];portConstraint=eastwest;top=0;left=0;right=0;bottom=0;" parent="81" vertex="1"><mxGeometry y="80" width="250" height="40" as="geometry"/></mxCell><mxCell id="86" value="" style="shape=partialRectangle;overflow=hidden;connectable=0;fillColor=none;top=0;left=0;bottom=0;right=0;" parent="85" vertex="1"><mxGeometry width="30" height="40" as="geometry"/></mxCell><mxCell id="87" value="insuranceType varchar(10)&#10;insuranceCovering varchar(100)" style="shape=partialRectangle;overflow=hidden;connectable=0;fillColor=none;top=0;left=0;bottom=0;right=0;align=left;spacingLeft=6;" parent="85" vertex="1"><mxGeometry x="30" width="220" height="40" as="geometry"/></mxCell><mxCell id="64" value="RemainingAmount" style="shape=table;startSize=30;container=1;collapsible=1;childLayout=tableLayout;fixedRows=1;rowLines=0;fontStyle=1;align=center;resizeLast=1;" parent="1" vertex="1"><mxGeometry x="1000" y="790" width="250" height="190" as="geometry"/></mxCell><mxCell id="65" value="" style="shape=partialRectangle;collapsible=0;dropTarget=0;pointerEvents=0;fillColor=none;points=[[0,0.5],[1,0.5]];portConstraint=eastwest;top=0;left=0;right=0;bottom=1;" parent="64" vertex="1"><mxGeometry y="30" width="250" height="30" as="geometry"/></mxCell><mxCell id="66" value="PK" style="shape=partialRectangle;overflow=hidden;connectable=0;fillColor=none;top=0;left=0;bottom=0;right=0;fontStyle=1;" parent="65" vertex="1"><mxGeometry width="30" height="30" as="geometry"/></mxCell><mxCell id="67" value="RemainingID int NOT NULL" style="shape=partialRectangle;overflow=hidden;connectable=0;fillColor=none;top=0;left=0;bottom=0;right=0;align=left;spacingLeft=6;fontStyle=5;" parent="65" vertex="1"><mxGeometry x="30" width="220" height="30" as="geometry"/></mxCell><mxCell id="68" value="" style="shape=partialRectangle;collapsible=0;dropTarget=0;pointerEvents=0;fillColor=none;points=[[0,0.5],[1,0.5]];portConstraint=eastwest;top=0;left=0;right=0;bottom=0;" parent="64" vertex="1"><mxGeometry y="60" width="250" height="90" as="geometry"/></mxCell><mxCell id="69" value="FK1&#10;&#10;FK2&#10;" style="shape=partialRectangle;overflow=hidden;connectable=0;fillColor=none;top=0;left=0;bottom=0;right=0;" parent="68" vertex="1"><mxGeometry width="30" height="90" as="geometry"/></mxCell><mxCell id="70" value="DepositPaid varchar(10)&#10;RemainingAmount decimal&#10;RentalStartDate date&#10;RemainingDueDate date" style="shape=partialRectangle;overflow=hidden;connectable=0;fillColor=none;top=0;left=0;bottom=0;right=0;align=left;spacingLeft=6;" parent="68" vertex="1"><mxGeometry x="30" width="220" height="90" as="geometry"/></mxCell><mxCell id="71" value="" style="shape=partialRectangle;collapsible=0;dropTarget=0;pointerEvents=0;fillColor=none;points=[[0,0.5],[1,0.5]];portConstraint=eastwest;top=0;left=0;right=0;bottom=0;" parent="64" vertex="1"><mxGeometry y="150" width="250" height="30" as="geometry"/></mxCell><mxCell id="72" value="" style="shape=partialRectangle;overflow=hidden;connectable=0;fillColor=none;top=0;left=0;bottom=0;right=0;" parent="71" vertex="1"><mxGeometry width="30" height="30" as="geometry"/></mxCell><mxCell id="73" value="" style="shape=partialRectangle;overflow=hidden;connectable=0;fillColor=none;top=0;left=0;bottom=0;right=0;align=left;spacingLeft=6;" parent="71" vertex="1"><mxGeometry x="30" width="220" height="30" as="geometry"/></mxCell><mxCell id="99" value="Invoice" style="shape=table;startSize=30;container=1;collapsible=1;childLayout=tableLayout;fixedRows=1;rowLines=0;fontStyle=1;align=center;resizeLast=1;" parent="1" vertex="1"><mxGeometry x="130" y="640" width="250" height="130" as="geometry"/></mxCell><mxCell id="100" value="" style="shape=partialRectangle;collapsible=0;dropTarget=0;pointerEvents=0;fillColor=none;points=[[0,0.5],[1,0.5]];portConstraint=eastwest;top=0;left=0;right=0;bottom=1;" parent="99" vertex="1"><mxGeometry y="30" width="250" height="30" as="geometry"/></mxCell><mxCell id="101" value="PK" style="shape=partialRectangle;overflow=hidden;connectable=0;fillColor=none;top=0;left=0;bottom=0;right=0;fontStyle=1;" parent="100" vertex="1"><mxGeometry width="30" height="30" as="geometry"/></mxCell><mxCell id="102" value="invoice_id int NOT NULL " style="shape=partialRectangle;overflow=hidden;connectable=0;fillColor=none;top=0;left=0;bottom=0;right=0;align=left;spacingLeft=6;fontStyle=5;" parent="100" vertex="1"><mxGeometry x="30" width="220" height="30" as="geometry"/></mxCell><mxCell id="103" value="" style="shape=partialRectangle;collapsible=0;dropTarget=0;pointerEvents=0;fillColor=none;points=[[0,0.5],[1,0.5]];portConstraint=eastwest;top=0;left=0;right=0;bottom=0;" parent="99" vertex="1"><mxGeometry y="60" width="250" height="30" as="geometry"/></mxCell><mxCell id="104" value="FK1" style="shape=partialRectangle;overflow=hidden;connectable=0;fillColor=none;top=0;left=0;bottom=0;right=0;" parent="103" vertex="1"><mxGeometry width="30" height="30" as="geometry"/></mxCell><mxCell id="105" value="payment_id int NOT NULL" style="shape=partialRectangle;overflow=hidden;connectable=0;fillColor=none;top=0;left=0;bottom=0;right=0;align=left;spacingLeft=6;" parent="103" vertex="1"><mxGeometry x="30" width="220" height="30" as="geometry"/></mxCell><mxCell id="106" value="" style="shape=partialRectangle;collapsible=0;dropTarget=0;pointerEvents=0;fillColor=none;points=[[0,0.5],[1,0.5]];portConstraint=eastwest;top=0;left=0;right=0;bottom=0;" parent="99" vertex="1"><mxGeometry y="90" width="250" height="30" as="geometry"/></mxCell><mxCell id="107" value="" style="shape=partialRectangle;overflow=hidden;connectable=0;fillColor=none;top=0;left=0;bottom=0;right=0;" parent="106" vertex="1"><mxGeometry width="30" height="30" as="geometry"/></mxCell><mxCell id="108" value="Invoice_due_date Date &#10;AmountDue (int)" style="shape=partialRectangle;overflow=hidden;connectable=0;fillColor=none;top=0;left=0;bottom=0;right=0;align=left;spacingLeft=6;" parent="106" vertex="1"><mxGeometry x="30" width="220" height="30" as="geometry"/></mxCell></root></mxGraphModel></diagram><diagram id="lXBKaecG4QT0pNorroqd" name="Architecture"><mxGraphModel dx="1628" dy="867" grid="0" gridSize="10" guides="1" tooltips="1" connect="1" arrows="1" fold="1" page="1" pageScale="1" pageWidth="1200" pageHeight="1920" math="0" shadow="0"><root><mxCell id="uq1cCy1zZXr5u-vSK014-0"/><mxCell id="uq1cCy1zZXr5u-vSK014-1" parent="uq1cCy1zZXr5u-vSK014-0"/><mxCell id="uq1cCy1zZXr5u-vSK014-11" value="UI" style="shape=module;align=left;spacingLeft=20;align=center;verticalAlign=top;" vertex="1" parent="uq1cCy1zZXr5u-vSK014-1"><mxGeometry x="106" y="48" width="589" height="151" as="geometry"/></mxCell><mxCell id="uq1cCy1zZXr5u-vSK014-12" value="Domain" style="shape=module;align=left;spacingLeft=20;align=center;verticalAlign=top;" vertex="1" parent="uq1cCy1zZXr5u-vSK014-1"><mxGeometry x="291" y="304" width="739" height="178" as="geometry"/></mxCell><mxCell id="uq1cCy1zZXr5u-vSK014-13" value="Database" style="shape=module;align=left;spacingLeft=20;align=center;verticalAlign=top;" vertex="1" parent="uq1cCy1zZXr5u-vSK014-1"><mxGeometry x="483" y="616" width="671" height="163" as="geometry"/></mxCell><mxCell id="uq1cCy1zZXr5u-vSK014-14" value="Client UI" style="shape=folder;fontStyle=1;spacingTop=10;tabWidth=40;tabHeight=14;tabPosition=left;html=1;" vertex="1" parent="uq1cCy1zZXr5u-vSK014-1"><mxGeometry x="151" y="80.5" width="120.4" height="86" as="geometry"/></mxCell><mxCell id="uq1cCy1zZXr5u-vSK014-15" value="Administrator UI" style="shape=folder;fontStyle=1;spacingTop=10;tabWidth=40;tabHeight=14;tabPosition=left;html=1;" vertex="1" parent="uq1cCy1zZXr5u-vSK014-1"><mxGeometry x="316" y="83" width="125.75" height="83.5" as="geometry"/></mxCell><mxCell id="uq1cCy1zZXr5u-vSK014-17" value="Beans" style="shape=folder;fontStyle=1;spacingTop=10;tabWidth=40;tabHeight=14;tabPosition=left;html=1;" vertex="1" parent="uq1cCy1zZXr5u-vSK014-1"><mxGeometry x="332" y="347.25" width="123" height="91.5" as="geometry"/></mxCell><mxCell id="f7kofsuxr9CyStsCjJdy-0" value="PaymentCalculator" style="shape=folder;fontStyle=1;spacingTop=10;tabWidth=40;tabHeight=14;tabPosition=left;html=1;" vertex="1" parent="uq1cCy1zZXr5u-vSK014-1"><mxGeometry x="498.38" y="347.25" width="123" height="91.5" as="geometry"/></mxCell><mxCell id="f7kofsuxr9CyStsCjJdy-1" value="RantControl" style="shape=folder;fontStyle=1;spacingTop=10;tabWidth=40;tabHeight=14;tabPosition=left;html=1;" vertex="1" parent="uq1cCy1zZXr5u-vSK014-1"><mxGeometry x="665" y="347.25" width="135" height="90.75" as="geometry"/></mxCell><mxCell id="f7kofsuxr9CyStsCjJdy-2" value="InformationTransfer" style="shape=folder;fontStyle=1;spacingTop=10;tabWidth=40;tabHeight=14;tabPosition=left;html=1;" vertex="1" parent="uq1cCy1zZXr5u-vSK014-1"><mxGeometry x="844" y="347.25" width="135" height="90.75" as="geometry"/></mxCell><mxCell id="f7kofsuxr9CyStsCjJdy-4" value="Use" style="endArrow=open;endSize=12;dashed=1;html=1;exitX=0.079;exitY=1.007;exitDx=0;exitDy=0;exitPerimeter=0;entryX=0.065;entryY=-0.002;entryDx=0;entryDy=0;entryPerimeter=0;edgeStyle=orthogonalEdgeStyle;curved=1;" edge="1" parent="uq1cCy1zZXr5u-vSK014-1" source="uq1cCy1zZXr5u-vSK014-11" target="uq1cCy1zZXr5u-vSK014-12"><mxGeometry width="160" relative="1" as="geometry"><mxPoint x="87" y="276" as="sourcePoint"/><mxPoint x="247" y="276" as="targetPoint"/></mxGeometry></mxCell><mxCell id="f7kofsuxr9CyStsCjJdy-5" value="Use" style="endArrow=open;endSize=12;dashed=1;html=1;exitX=0.14;exitY=0.989;exitDx=0;exitDy=0;exitPerimeter=0;entryX=0.138;entryY=-0.006;entryDx=0;entryDy=0;entryPerimeter=0;edgeStyle=orthogonalEdgeStyle;curved=1;" edge="1" parent="uq1cCy1zZXr5u-vSK014-1" source="uq1cCy1zZXr5u-vSK014-12" target="uq1cCy1zZXr5u-vSK014-13"><mxGeometry width="160" relative="1" as="geometry"><mxPoint x="400.99799999999993" y="497.997" as="sourcePoint"/><mxPoint x="575.4150000000001" y="601.5840000000001" as="targetPoint"/></mxGeometry></mxCell><mxCell id="f7kofsuxr9CyStsCjJdy-6" value="Note" style="shape=note;whiteSpace=wrap;html=1;size=14;verticalAlign=top;align=left;spacingTop=-6;" vertex="1" parent="uq1cCy1zZXr5u-vSK014-1"><mxGeometry x="164" y="537" width="100" height="70" as="geometry"/></mxCell><mxCell id="f7kofsuxr9CyStsCjJdy-7" value="JDBC" style="shape=folder;fontStyle=1;spacingTop=10;tabWidth=40;tabHeight=14;tabPosition=left;html=1;" vertex="1" parent="uq1cCy1zZXr5u-vSK014-1"><mxGeometry x="536" y="649" width="123" height="91.5" as="geometry"/></mxCell><mxCell id="f7kofsuxr9CyStsCjJdy-9" value="Dao" style="shape=folder;fontStyle=1;spacingTop=10;tabWidth=40;tabHeight=14;tabPosition=left;html=1;" vertex="1" parent="uq1cCy1zZXr5u-vSK014-1"><mxGeometry x="721" y="651.75" width="123" height="91.5" as="geometry"/></mxCell><mxCell id="f7kofsuxr9CyStsCjJdy-10" value="Documentation" style="shape=folder;fontStyle=1;spacingTop=10;tabWidth=40;tabHeight=14;tabPosition=left;html=1;" vertex="1" parent="uq1cCy1zZXr5u-vSK014-1"><mxGeometry x="492" y="83" width="125.75" height="83.5" as="geometry"/></mxCell><mxCell id="f7kofsuxr9CyStsCjJdy-11" value="Use" style="endArrow=open;endSize=12;dashed=1;html=1;edgeStyle=orthogonalEdgeStyle;curved=1;" edge="1" parent="uq1cCy1zZXr5u-vSK014-1" source="f7kofsuxr9CyStsCjJdy-2" target="f7kofsuxr9CyStsCjJdy-10"><mxGeometry width="160" relative="1" as="geometry"><mxPoint x="737.0009999999997" y="153.997" as="sourcePoint"/><mxPoint x="923.5050000000001" y="257.584" as="targetPoint"/><Array as="points"><mxPoint x="912" y="125"/></Array></mxGeometry></mxCell><mxCell id="f7kofsuxr9CyStsCjJdy-12" value="Use" style="endArrow=open;endSize=12;dashed=1;html=1;edgeStyle=orthogonalEdgeStyle;curved=1;exitX=0.79;exitY=0.147;exitDx=0;exitDy=0;exitPerimeter=0;" edge="1" parent="uq1cCy1zZXr5u-vSK014-1" source="f7kofsuxr9CyStsCjJdy-7" target="f7kofsuxr9CyStsCjJdy-0"><mxGeometry width="160" relative="1" as="geometry"><mxPoint x="936.7794117647059" y="679.25" as="sourcePoint"/><mxPoint x="643" y="457.0000000000001" as="targetPoint"/><Array as="points"><mxPoint x="628" y="663"/><mxPoint x="628" y="505"/><mxPoint x="560" y="505"/></Array></mxGeometry></mxCell></root></mxGraphModel></diagram></mxfile>